<svg version="1.1" id="Layer_1" xmlns="http://www.w3.org/2000/svg" xmlns:xlink="http://www.w3.org/1999/xlink" x="0px" y="0px"
	 width="100%" viewBox="0 0 1024 1024" enable-background="new 0 0 1024 1024" xml:space="preserve">
<path fill="#000000" opacity="1.000000" stroke="none" 
	d="
M723.630066,516.726807 
	C721.627441,512.772095 718.036987,512.784302 715.312256,516.476868 
	C711.161865,522.101624 707.114136,527.802124 703.019165,533.467957 
	C702.260803,534.517151 701.814636,535.901062 700.143433,536.134216 
	C697.979248,534.805359 698.858582,532.582275 698.843140,530.762573 
	C698.718933,516.099915 698.423218,501.430267 698.729858,486.774231 
	C699.239319,462.420685 688.442200,442.929199 672.712585,425.682220 
	C669.519165,422.180786 667.061646,419.419006 668.645874,414.571350 
	C668.935852,413.684052 668.687195,412.620728 668.687195,411.181610 
	C665.414795,412.889160 661.650696,416.455780 661.966064,408.897797 
	C662.038269,407.166992 659.164368,406.412933 656.952148,407.068604 
	C653.745911,408.018860 651.003723,406.880402 648.635681,404.849579 
	C642.619263,399.689911 637.715759,394.434540 638.398376,385.184906 
	C639.282715,373.201599 633.277771,365.760162 621.924072,361.969757 
	C617.635803,360.538177 616.656616,359.216095 614.671021,351.945862 
	C621.574890,350.212006 618.046997,343.470245 620.497864,339.383209 
	C620.987671,338.566467 619.846619,337.568665 618.886414,337.162292 
	C616.256165,336.049072 614.676331,334.050476 613.666748,331.444336 
	C613.138306,330.080383 612.522400,328.267609 610.519531,329.492126 
	C608.415649,330.778442 608.798462,333.475525 610.212646,334.106079 
	C614.596802,336.061005 612.952087,340.072052 614.076904,342.424133 
	C613.883606,345.156616 609.409485,340.924408 611.587158,346.906158 
	C605.697754,341.563629 600.290894,338.096680 595.177856,334.376801 
	C591.614807,331.784637 592.185181,326.068939 594.221619,321.828796 
	C598.799072,312.298126 600.064148,313.333710 590.092834,303.441193 
	C583.047913,296.451996 574.041321,294.538910 565.083313,292.312286 
	C562.527893,291.677094 559.834412,292.518555 556.904236,293.972382 
	C561.996216,301.503326 569.227966,307.403717 573.024048,316.051727 
	C570.141968,316.523254 569.748962,314.519226 568.804260,313.363434 
	C564.905762,308.593842 561.043030,303.794037 557.229980,298.955841 
	C554.434448,295.408844 551.336121,293.533936 546.470154,294.984741 
	C543.366943,295.909943 539.879517,295.508392 536.200256,297.167389 
	C539.361572,307.644012 544.405029,317.525635 547.326294,328.998657 
	C542.032349,325.555878 542.047607,325.656464 534.639587,326.779877 
	C530.570129,327.396942 526.989197,326.031799 524.722229,322.522705 
	C524.080200,321.528931 522.848267,319.877380 524.195984,318.395905 
	C525.378174,317.096344 527.089905,316.079742 528.649719,317.009003 
	C532.432861,319.262787 535.657532,317.622925 539.499939,316.025696 
	C538.114929,310.021576 535.790588,304.380157 533.444519,298.755432 
	C532.816833,297.250732 531.639771,296.328674 529.848755,296.938232 
	C526.961182,297.921051 525.110168,300.579865 525.483337,302.972900 
	C526.197144,307.550079 523.931702,309.570221 520.459167,310.842529 
	C515.825073,312.540375 514.540955,315.592102 515.504517,320.208862 
	C516.030640,322.730011 516.471130,325.407104 514.842468,328.429749 
	C512.456848,326.038544 513.650574,323.548248 513.529297,321.288300 
	C513.410339,319.071228 514.811340,316.199371 512.312744,314.841309 
	C509.520203,313.323486 506.816101,314.880646 504.504852,316.660553 
	C501.385529,319.062714 498.549408,321.980804 494.271973,321.987976 
	C492.978546,320.283295 494.214478,318.981201 494.540588,317.603333 
	C495.787994,312.333344 494.009216,307.033234 490.028137,304.205170 
	C485.925781,301.290985 480.851410,301.427338 475.973114,304.260742 
	C474.197113,305.292297 472.715637,308.174866 469.761932,305.740356 
	C470.051025,303.940674 470.552002,302.036407 470.619324,300.116943 
	C470.719421,297.261566 469.679077,294.743256 466.847778,293.672028 
	C464.235718,292.683716 461.625916,292.791565 459.512695,295.125183 
	C456.607330,298.333588 453.316376,301.247742 450.778839,304.718048 
	C448.494965,307.841400 447.849548,311.417145 451.716949,314.298370 
	C453.127655,315.349335 455.392914,316.164520 454.937561,318.316040 
	C454.447601,320.631042 452.121094,321.390961 450.077820,322.166840 
	C446.285431,323.606964 442.809052,330.863464 444.068085,334.178406 
	C444.694794,335.828583 445.492767,336.722382 447.242828,336.709961 
	C447.575562,336.707581 447.916718,336.794098 448.240204,336.746307 
	C452.019409,336.187927 456.684326,339.596344 459.305786,336.804199 
	C463.345673,332.501251 464.844299,326.329926 466.842896,320.704102 
	C467.543915,318.730682 467.225555,316.375549 469.082977,314.826874 
	C474.586792,319.819946 476.185272,327.951721 472.809052,333.765625 
	C469.493744,333.607758 469.343170,330.136780 467.315613,328.380493 
	C462.477997,333.440796 465.219696,342.356964 458.170837,346.299957 
	C456.289917,344.569092 458.652466,342.757050 457.517578,340.632874 
	C454.078857,339.399536 450.137238,338.899872 445.732880,339.698730 
	C445.918854,343.499084 445.442383,347.109009 450.122925,348.675629 
	C452.362274,349.425079 454.375183,351.446045 453.871063,353.969604 
	C453.265869,356.999023 452.206116,360.260925 448.664673,361.341248 
	C444.335022,362.661987 440.247406,364.326538 436.826294,367.431274 
	C435.130676,368.970032 432.982300,367.704926 431.202942,367.782013 
	C428.026917,371.995789 426.723389,375.945709 432.208099,379.116577 
	C430.140991,383.270508 426.154449,384.307922 423.464478,386.778259 
	C416.202850,382.497009 411.509125,384.194763 409.589874,392.088379 
	C415.954803,395.594940 423.630554,392.076721 430.324188,395.229218 
	C429.153870,397.806366 427.121826,397.135376 425.513336,397.028107 
	C419.538940,396.629822 413.565552,396.158325 407.612549,395.520233 
	C404.253510,395.160217 401.242096,395.291290 399.373505,398.620422 
	C398.283478,400.562469 396.554382,401.126801 394.461975,401.510437 
	C376.711670,404.764801 360.666534,411.573395 347.765991,424.608826 
	C344.145294,428.267395 340.625732,432.067261 337.442169,436.103882 
	C334.989197,439.214142 333.112793,439.172821 330.828949,436.174164 
	C329.417053,434.320404 327.774292,432.640594 326.389160,430.768707 
	C321.026001,423.520630 321.113617,421.974274 327.023163,415.399506 
	C343.855133,396.672516 341.352234,370.768768 320.834778,354.908356 
	C316.934204,351.893127 317.305573,350.323303 320.136566,346.821106 
	C340.441559,321.702118 365.063507,301.759796 393.419617,286.664856 
	C414.345978,275.525024 436.646790,267.761536 460.024841,263.070526 
	C490.098267,257.036011 520.242920,256.633484 550.401245,261.400787 
	C586.910645,267.171967 619.815613,281.860229 649.959045,303.096497 
	C682.647278,326.125549 707.679565,355.763672 725.921021,391.140076 
	C740.471252,419.357910 749.559448,449.353760 753.134949,480.952637 
	C753.415100,483.428741 753.292603,485.947723 753.450073,488.440887 
	C753.919006,495.863281 755.696045,502.340149 760.348877,508.878693 
	C771.357605,524.348816 769.640381,550.506165 758.132874,565.436035 
	C754.829773,569.721313 753.529602,569.889282 748.903748,566.204895 
	C746.289368,574.600525 743.843201,582.839783 741.155273,590.999512 
	C736.870605,604.006836 731.043518,616.337952 724.500732,628.353394 
	C722.468506,632.085449 719.783203,633.080261 715.095581,631.203308 
	C723.727905,615.016418 731.848877,598.927124 736.821533,580.742004 
	C731.387756,580.119080 726.513916,580.584045 721.652466,581.038879 
	C720.355835,581.160217 719.604980,582.021606 719.587158,583.424194 
	C719.414124,597.057495 713.615234,609.139038 709.064453,621.566528 
	C708.002441,624.466858 705.913208,625.806824 703.310730,624.066589 
	C700.706299,622.325073 694.631714,622.520386 697.171204,617.070251 
	C699.779785,611.471863 699.982727,605.871887 699.625244,600.047668 
	C699.406921,596.492126 700.671875,594.102478 703.953857,592.408936 
	C708.098389,590.270386 711.124573,587.106628 711.008301,581.762512 
	C707.105286,580.690308 703.296875,581.520447 699.372192,581.420776 
	C698.632324,578.105225 700.860168,577.888855 702.761475,577.955811 
	C717.417297,578.471863 716.851990,575.324524 719.194702,563.168518 
	C722.131287,547.931030 722.832642,532.540405 723.630066,516.726807 
M745.711426,478.674377 
	C744.703613,470.078186 743.328796,461.543762 741.244812,453.138611 
	C740.812866,451.396454 740.429810,449.469818 737.929871,449.420166 
	C735.228271,449.366516 735.597534,451.419830 734.962646,453.110931 
	C732.891602,458.627014 731.396545,464.412933 727.186951,468.962708 
	C723.558411,472.884552 723.354736,478.027771 726.298279,482.363373 
	C726.831543,483.148804 728.007690,483.601318 727.439270,484.794434 
	C724.308899,491.364624 726.576599,498.243500 726.348999,504.964478 
	C726.158203,510.600220 728.634338,512.313049 733.760803,510.195801 
	C736.318359,509.139526 738.175659,509.091064 740.733521,510.199371 
	C745.321777,512.187439 747.622925,510.401855 747.746643,505.445038 
	C747.963440,496.755249 746.743774,488.176849 745.711426,478.674377 
M736.859192,539.455811 
	C738.616699,532.468567 737.142639,525.576050 736.233093,518.670593 
	C735.765747,515.122314 734.359314,512.938416 730.106140,513.306274 
	C725.612366,513.694946 726.351013,516.843994 726.361938,519.493530 
	C726.419434,533.490173 724.520020,547.288208 722.806213,561.138367 
	C722.145813,566.475159 719.231018,571.481262 720.248230,577.242126 
	C724.572876,578.274109 728.670715,576.653015 732.764099,576.983582 
	C737.131470,577.336243 738.911926,575.075684 739.913086,571.136292 
	C742.331177,561.622009 744.339172,552.037842 745.550964,542.301453 
	C746.371826,535.706116 746.976685,529.083130 747.618530,522.466736 
	C747.762573,520.982666 747.644958,519.474243 747.671082,517.977478 
	C747.717529,515.316284 746.508545,513.746765 743.766907,514.099121 
	C740.782288,514.482666 741.950195,516.753479 742.222778,518.396179 
	C744.357178,531.257385 744.056396,543.901123 739.021790,556.144775 
	C738.242920,558.038757 737.335999,560.081299 734.741882,559.272705 
	C732.118774,558.454956 732.536926,556.233643 733.085938,554.278076 
	C734.387146,549.642273 736.199951,545.143555 736.859192,539.455811 
M636.911560,313.418610 
	C639.937500,313.769226 641.597900,317.342346 644.800720,317.220123 
	C645.795349,315.062836 642.514160,314.389893 643.809326,312.518219 
	C644.798645,311.233459 646.810608,312.520142 647.870605,310.826050 
	C647.043457,309.950531 646.373352,308.970856 645.466492,308.321930 
	C631.762512,298.515381 616.984680,290.630768 601.572632,283.883850 
	C598.381714,282.487030 596.695251,284.428162 594.870239,286.615204 
	C595.927673,288.425842 597.716064,289.000153 599.283569,289.864624 
	C608.465942,294.928680 617.367798,300.464783 625.480103,307.103790 
	C628.780701,309.804993 632.259277,311.796478 636.911560,313.418610 
M583.156738,291.315552 
	C580.761719,292.541168 581.536987,293.910004 583.127197,295.055634 
	C588.525330,298.944550 593.631042,303.181061 598.523865,307.681732 
	C599.776062,308.833527 601.320740,308.965179 602.720459,308.329315 
	C607.111938,306.334320 611.858826,305.654633 617.724915,304.383301 
	C607.384399,297.594086 597.983154,291.405457 587.731628,287.210571 
	C585.872192,288.684113 585.837585,290.877106 583.156738,291.315552 
M760.733887,533.583374 
	C760.436096,527.632446 760.179138,521.667847 755.382874,517.065552 
	C753.999695,532.426392 752.115784,547.523071 750.158020,562.673279 
	C757.586731,554.651489 760.632996,545.119263 760.733887,533.583374 
M667.814331,388.559875 
	C669.594299,388.954651 671.369385,389.644043 673.155396,389.673462 
	C675.682922,389.715149 677.052673,388.464417 675.522644,385.855133 
	C673.450928,382.322021 665.325806,378.258057 661.644653,379.523376 
	C658.737549,380.522675 656.591614,379.835815 654.116638,378.707733 
	C651.825439,377.663452 649.041443,375.733276 647.660461,379.862610 
	C646.590332,383.062653 648.278198,384.378387 651.140320,385.797821 
	C656.281677,388.347656 662.100464,385.380646 667.814331,388.559875 
M400.506927,341.203186 
	C396.836761,340.362976 392.925720,341.272400 389.352417,339.590729 
	C388.214355,339.055054 387.036560,339.438538 386.269409,340.503998 
	C385.417694,341.686920 385.830658,342.937500 386.871277,343.537048 
	C389.720245,345.178436 391.513184,348.279907 394.921814,349.142151 
	C397.513397,349.797729 399.715942,350.857056 398.526886,354.294617 
	C398.102295,355.522095 398.463989,356.678528 399.807556,357.114868 
	C401.521667,357.671448 402.164154,356.461365 402.633453,355.128479 
	C404.281921,350.446350 405.676514,345.567322 412.173828,344.317657 
	C408.595612,340.996307 404.655457,342.294983 400.506927,341.203186 
M447.703430,303.883057 
	C450.977264,300.218018 454.685974,296.907501 457.376709,292.289581 
	C452.379303,289.037933 448.027100,290.281860 443.397766,292.792297 
	C440.267334,294.489899 437.893127,296.466522 439.136993,300.032867 
	C440.358887,303.536133 443.535553,304.757965 447.703430,303.883057 
M547.445496,277.108734 
	C544.932983,275.818115 542.746033,276.271515 540.601257,278.153687 
	C542.657349,281.661530 546.024963,283.411438 548.573120,285.985107 
	C554.450073,291.920990 556.657104,292.103241 565.110962,287.591736 
	C560.229126,282.620361 553.747192,280.689941 547.445496,277.108734 
M713.398743,488.927948 
	C716.537048,488.575195 718.745056,484.075104 722.668091,487.328522 
	C722.839539,483.208588 722.237244,479.695465 720.943115,475.818726 
	C715.222839,479.159882 709.807739,482.290039 704.431030,485.484741 
	C702.958496,486.359619 702.353333,487.699280 703.351440,489.288422 
	C704.166321,490.585846 705.147766,491.719055 707.005127,491.059479 
	C708.882385,490.392975 710.791748,489.817169 713.398743,488.927948 
M540.740540,292.810638 
	C543.484802,292.645233 546.253113,292.590027 549.148499,291.192932 
	C545.828003,286.807190 541.892029,283.609253 537.952271,280.417725 
	C536.950500,279.606201 535.532532,279.170593 534.956299,280.428314 
	C533.900940,282.731934 530.393372,283.978241 532.207092,287.631592 
	C533.884460,291.010193 535.006592,294.581604 540.740540,292.810638 
M411.301971,332.585449 
	C407.954834,333.845490 406.005585,331.771088 404.250977,329.503143 
	C402.013123,326.610565 399.690948,327.790039 398.094421,329.767639 
	C396.520691,331.716980 395.147400,334.138306 395.815430,337.324280 
	C400.132843,337.853149 404.357849,338.579346 408.611237,338.836151 
	C413.375061,339.123840 414.188965,337.465302 411.301971,332.585449 
M559.885071,271.473907 
	C568.874268,276.301758 577.824036,281.266846 588.545227,280.085327 
	C579.516602,275.888306 570.440369,271.872986 559.885071,271.473907 
M562.633850,276.880249 
	C559.452576,275.778320 556.315796,274.293701 552.748535,275.946259 
	C559.665771,278.053741 564.503906,287.280701 574.982849,281.432281 
	C570.388123,279.733978 566.886108,278.439575 562.633850,276.880249 
M450.854645,275.427246 
	C455.175751,275.427246 459.496857,275.427246 464.231201,275.427246 
	C462.720428,270.982880 460.118530,270.746124 457.407074,271.337799 
	C452.102020,272.495483 446.832367,273.826111 441.579498,275.204895 
	C440.265045,275.549896 438.563141,275.649139 438.207916,277.571655 
	C439.686554,279.327393 441.530090,278.892242 443.235443,278.319122 
	C445.569061,277.534882 447.820190,276.505066 450.854645,275.427246 
M425.567322,317.346588 
	C425.782196,316.417694 426.547241,315.348785 425.534363,314.601318 
	C424.592957,313.906647 423.670441,314.554291 422.903442,315.263794 
	C421.078461,316.951996 419.348999,318.764191 417.395050,320.287872 
	C413.287415,323.490967 413.249329,324.208008 417.715088,328.090851 
	C420.920074,325.233002 421.479706,320.338989 425.567322,317.346588 
M711.968140,433.636169 
	C710.272583,432.357056 709.647827,429.598969 706.529480,429.619110 
	C706.420227,436.583435 715.913879,436.192474 715.548645,443.429474 
	C717.969971,441.542389 721.999146,443.524414 721.766052,438.837860 
	C718.669556,437.253296 715.594482,435.679688 711.968140,433.636169 
M731.233337,445.416718 
	C733.587158,447.257629 736.102478,446.971710 738.678772,446.227325 
	C738.496338,440.208405 734.530212,438.466309 726.346436,440.678467 
	C726.497375,443.396942 729.062866,443.710510 731.233337,445.416718 
M720.662170,500.108795 
	C720.124023,502.375336 719.533569,504.631134 719.065430,506.912018 
	C718.732056,508.536285 718.181335,510.477173 720.845947,510.582275 
	C723.013977,510.667786 723.731750,509.184967 723.636292,507.281555 
	C723.416504,502.903656 723.121582,498.529510 722.857178,494.153839 
	C722.657227,494.147034 722.457275,494.140198 722.257324,494.133392 
	C721.808533,495.877106 721.359802,497.620819 720.662170,500.108795 
M433.340942,329.186218 
	C429.058044,325.482544 429.058044,325.482544 426.513672,327.779846 
	C430.230591,329.356140 431.944214,334.326813 437.430908,333.357880 
	C436.902527,330.938873 435.247528,330.385010 433.340942,329.186218 
M392.529663,335.076050 
	C392.667023,334.082489 392.852936,332.702026 391.526306,332.783173 
	C389.627289,332.899323 388.222168,334.084991 387.779633,336.171783 
	C389.545135,337.787109 391.019958,337.586670 392.529663,335.076050 
z"/>
<path fill="#000000" opacity="1.000000" stroke="none" 
	d="
M656.244019,627.234863 
	C667.292480,614.789734 671.717102,600.235596 671.792542,584.277893 
	C671.942261,552.620605 672.167725,520.957825 671.745361,489.305603 
	C671.418579,464.817169 661.355713,445.444092 638.902710,433.969330 
	C630.674927,429.764435 621.894897,426.893707 612.544800,431.083466 
	C611.798706,431.417755 610.960510,431.677002 609.621887,430.433624 
	C613.600098,424.930389 613.435486,416.224579 622.790344,414.615601 
	C624.645081,414.296570 626.679504,413.142883 627.965088,411.756561 
	C631.440491,408.009003 635.089966,408.682281 639.292908,410.177155 
	C669.878967,421.055511 692.906921,452.664978 693.173340,485.160065 
	C693.457520,519.819519 693.291443,554.482849 693.259277,589.144470 
	C693.249512,599.632690 690.594788,609.591309 686.439636,619.135681 
	C684.901367,622.668945 685.622620,624.327515 689.444885,625.023987 
	C697.308350,626.456726 704.325745,629.819153 710.364258,635.067932 
	C712.621399,637.029846 715.164856,637.135071 717.867676,636.890320 
	C731.100952,635.692139 743.334534,638.755676 754.667786,645.573853 
	C775.455078,658.079712 781.882507,685.068665 765.211609,703.266968 
	C755.732483,713.614502 743.880798,719.240479 730.296448,720.860229 
	C711.672729,723.080933 694.869568,718.575500 681.281921,704.918091 
	C666.147278,689.705750 666.749878,667.060425 682.567627,652.524597 
	C683.181091,651.960938 683.900879,651.483643 684.406372,650.837219 
	C686.380554,648.312500 691.014832,647.610657 690.574646,643.605286 
	C690.012207,638.486633 688.525391,633.477417 685.184631,629.287903 
	C683.522156,627.203064 682.031189,627.101929 680.556152,629.534119 
	C667.873352,650.446289 648.837524,662.184631 625.446472,667.586243 
	C620.564941,668.713501 615.599976,669.212097 610.586182,669.217773 
	C581.923828,669.250366 553.253845,669.692993 524.602539,669.148560 
	C510.948303,668.888977 499.169067,672.590820 488.065765,680.173401 
	C463.176208,697.170837 438.048950,713.820618 413.546082,731.380676 
	C412.597870,732.060242 411.715851,732.852478 410.332672,732.657959 
	C408.242859,731.313904 408.994568,729.117371 408.988892,727.245911 
	C408.937744,710.423645 408.832306,693.599304 409.051788,676.779663 
	C409.117584,671.734558 407.868317,669.598022 402.266022,668.996216 
	C361.449280,664.611450 333.962646,638.521729 327.192993,597.934692 
	C326.158783,591.734375 326.105011,585.324463 326.079987,579.009644 
	C325.958374,548.348450 325.641144,517.681519 326.074646,487.026184 
	C326.644257,446.744629 354.486755,414.117798 393.912781,407.056335 
	C406.265167,404.843933 418.838379,405.906738 431.322418,405.818329 
	C433.643036,405.801910 434.932220,407.294312 436.266876,408.779358 
	C439.131927,411.967285 442.580750,414.353302 446.767059,415.178680 
	C453.439850,416.494354 454.532257,421.897125 456.622223,426.867645 
	C453.404144,428.895691 450.621826,427.242157 447.901642,427.260986 
	C432.571991,427.367218 417.235535,427.059479 401.912231,427.391876 
	C377.746185,427.916077 353.311646,450.102142 349.303894,473.969879 
	C346.414520,491.177429 347.971069,508.451569 347.474731,525.683655 
	C346.899750,545.645691 347.557709,565.640442 347.191467,585.612000 
	C346.616302,616.975769 368.464203,638.482361 390.374664,645.078247 
	C399.929413,647.954590 409.776184,647.742371 419.614075,647.732666 
	C431.024780,647.721497 430.229736,646.384644 430.190521,658.044373 
	C430.174835,662.709839 430.118286,667.381775 430.324768,672.039856 
	C430.717133,680.890381 438.162598,685.225647 446.221466,681.408508 
	C458.483002,675.600586 468.982697,666.997864 480.380707,659.819702 
	C493.730347,651.412292 508.197357,647.692139 523.944702,647.544312 
	C544.748779,647.349121 565.549500,646.890320 586.357361,647.087830 
	C594.824097,647.168213 603.293335,647.011658 611.759644,647.113220 
	C629.522766,647.326355 644.049988,640.341858 656.244019,627.234863 
M685.616394,657.126831 
	C681.309082,661.777771 679.093567,666.960632 678.554321,673.587036 
	C677.282043,689.224182 683.722351,700.855347 696.263550,708.830444 
	C712.926575,719.426453 740.331360,716.838501 755.563049,704.267029 
	C771.035095,691.497314 773.244995,671.399963 760.339294,657.758240 
	C750.593567,647.456543 738.170349,642.812500 724.139893,642.319275 
	C717.110413,642.072205 709.499207,644.437439 704.105713,637.433594 
	C703.760254,636.985046 702.913208,636.878052 702.274109,636.707581 
	C698.467590,635.692322 695.586914,637.364685 696.542236,640.945984 
	C698.406494,647.935120 694.560608,650.911682 689.558777,653.748657 
	C688.280823,654.473572 687.258423,655.649109 685.616394,657.126831 
z"/>
<path fill="#000000" opacity="1.000000" stroke="none" 
	d="
M538.000000,439.282593 
	C522.344177,439.306793 507.169678,438.875732 492.037079,439.484772 
	C473.792480,440.218994 453.141968,420.670258 455.166687,402.058960 
	C456.284210,391.786774 454.769928,381.178772 455.522491,370.690643 
	C456.429260,358.053223 462.591248,348.729889 472.703766,341.773285 
	C480.559418,336.369263 482.794769,326.805603 477.643860,318.803772 
	C475.389343,315.301422 475.021729,311.994019 478.249084,308.901276 
	C481.042480,306.224365 484.235138,305.952087 487.338959,308.101776 
	C490.965759,310.613678 491.187897,314.365936 489.398163,317.891907 
	C487.733521,321.171356 487.237030,324.424896 487.368866,327.984131 
	C487.596893,334.141907 488.399078,335.042206 494.864929,335.053955 
	C514.517700,335.089630 534.171936,334.939972 553.822876,335.138062 
	C560.975769,335.210175 568.117859,335.260040 575.270020,335.118317 
	C578.812866,335.048065 580.587158,333.619354 580.607666,330.115204 
	C580.631592,326.018005 581.223389,322.001495 578.376892,318.194916 
	C575.951599,314.951599 576.383240,311.095062 579.803589,308.414001 
	C582.689514,306.151855 586.026550,305.811798 588.972107,308.360443 
	C592.330200,311.266022 593.014648,314.872375 590.354370,318.586517 
	C586.521729,323.937531 588.600708,329.814270 588.656860,335.484497 
	C588.674622,337.283203 590.679382,337.960083 592.147522,338.746063 
	C606.994324,346.693512 614.895630,358.690063 614.151489,375.928528 
	C613.713745,386.070099 614.421509,396.229370 613.513733,406.382202 
	C611.955811,423.806091 596.064880,438.994537 578.471497,439.250519 
	C565.150269,439.444336 551.823914,439.288361 538.000000,439.282593 
M589.734863,417.293304 
	C593.722839,414.119415 596.028870,410.026215 596.372437,404.915527 
	C597.155029,393.273376 597.448792,381.595184 596.579041,369.975922 
	C595.941589,361.460297 588.952026,354.900970 580.458557,353.118774 
	C575.951721,352.173096 571.511719,352.912140 567.037231,352.926758 
	C542.386780,353.007385 517.736084,353.079468 493.085602,353.053253 
	C481.253937,353.040680 472.345734,361.519806 472.270538,373.220764 
	C472.209503,382.714691 472.205353,392.209595 472.264954,401.703522 
	C472.340179,413.692474 480.181274,421.865692 492.235870,421.944855 
	C520.212036,422.128632 548.189941,422.051483 576.167175,422.069885 
	C580.972534,422.073029 585.392944,420.871521 589.734863,417.293304 
z"/>
<path fill="#000000" opacity="1.000000" stroke="none" 
	d="
M309.169617,599.915649 
	C312.935699,611.567200 317.618927,622.385742 322.813141,633.045044 
	C325.010773,637.554932 327.614960,639.306335 332.395325,638.822205 
	C334.175659,638.641907 336.426910,638.017029 337.955261,640.475037 
	C334.914001,642.425720 331.358917,640.443298 328.124634,642.003601 
	C328.788666,645.221497 330.839844,647.707642 332.492889,650.276489 
	C341.174377,663.767700 351.161804,676.227539 362.406158,687.692627 
	C364.906769,690.242310 367.325562,691.403687 371.117340,691.043152 
	C377.226227,690.462463 383.390656,690.417969 390.140594,689.388733 
	C386.415771,681.645813 379.883362,676.073242 376.094513,667.982971 
	C379.084503,668.350403 380.107697,670.319458 381.321075,671.883850 
	C384.690521,676.228027 387.994659,680.623596 391.274994,685.035828 
	C393.568085,688.120239 396.043579,690.656982 400.423004,689.465149 
	C401.408630,689.196838 402.441986,689.404541 402.729065,690.712524 
	C402.533875,692.799683 400.016724,691.623657 399.353363,693.114685 
	C399.689789,695.847656 403.168182,696.829041 403.214661,700.236877 
	C399.905548,699.863525 398.624939,697.093079 396.794434,695.282898 
	C394.877930,693.387634 393.071014,692.483704 390.197205,692.864197 
	C383.988647,693.686218 377.609924,692.926636 371.063080,694.713501 
	C372.437195,697.365479 374.696655,698.793823 376.745270,700.342957 
	C383.783752,705.665161 390.757385,711.067383 398.549652,715.325562 
	C403.102386,717.813660 404.592499,722.879700 402.520355,729.279663 
	C358.210083,707.466492 323.293030,675.875977 297.850220,633.767822 
	C272.349762,591.564209 262.729919,545.372009 264.262421,496.278992 
	C260.734070,496.538391 260.086151,498.836151 259.310181,500.653107 
	C253.069351,515.265991 254.031693,529.512268 261.764343,543.342041 
	C262.577026,544.795532 263.493927,546.190918 264.300415,547.647644 
	C265.246246,549.356079 265.817596,551.251160 263.962555,552.595215 
	C261.886780,554.099182 260.106903,552.850098 258.783722,551.209473 
	C254.859970,546.344238 252.157730,540.791870 250.495697,534.811646 
	C246.224716,519.444214 247.605469,504.823059 256.811707,491.392700 
	C257.555206,490.307983 258.424286,488.796234 259.493347,488.533356 
	C265.215881,487.126190 265.307983,482.765503 265.861145,478.129181 
	C267.439331,464.901215 269.910187,451.825653 273.587219,438.992310 
	C274.192383,436.880310 274.863678,435.179596 277.298798,434.986633 
	C279.915039,434.779358 281.658142,435.560211 280.921509,438.660156 
	C280.423126,440.757385 279.728302,442.820404 280.429688,446.300568 
	C284.912354,446.300568 289.651917,446.422394 294.380371,446.246063 
	C296.550537,446.165161 296.940887,444.459137 296.585358,442.573151 
	C296.289185,441.002075 295.315186,439.446716 296.777771,437.148193 
	C306.688446,444.062469 318.169312,445.731812 330.680389,446.382324 
	C326.134521,457.023804 322.767792,466.990295 320.953156,477.478424 
	C314.546448,475.050140 312.463470,472.345062 312.621246,466.920013 
	C312.703247,464.099274 311.490906,461.781891 310.217438,459.419159 
	C308.584808,456.390167 307.066101,453.299744 305.230072,449.711548 
	C302.516235,454.290710 307.494476,458.310242 305.302460,462.109924 
	C303.281281,463.224274 302.614655,460.843048 301.048767,460.910004 
	C299.835388,461.416168 299.599884,462.625031 299.453522,463.744904 
	C298.742218,469.187836 297.931732,474.626953 297.494904,480.094513 
	C296.805542,488.722412 296.058350,497.346771 296.045441,506.025940 
	C296.039886,509.755981 297.389099,511.099762 301.016937,510.980927 
	C305.844147,510.822845 310.682068,510.958832 315.514740,511.020874 
	C317.108459,511.041351 318.847595,510.705627 320.257690,512.297180 
	C319.243073,514.577881 317.222382,514.090393 315.579895,514.125183 
	C310.915436,514.224182 306.236572,514.360657 301.584320,514.103577 
	C297.485718,513.877075 295.994873,515.364868 296.034485,519.534363 
	C296.166138,533.389099 297.388214,547.126892 299.656952,560.782471 
	C300.256653,564.392151 301.068604,567.974792 301.490204,571.603821 
	C302.022064,576.181946 303.988281,578.228516 308.961273,577.901184 
	C312.736938,577.652710 316.854858,576.717041 320.968872,579.230408 
	C317.665192,582.257996 314.133484,580.952148 310.949432,580.689880 
	C303.870453,580.106628 303.568451,580.236572 305.337769,587.111511 
	C306.414459,591.295044 307.804443,595.398010 309.169617,599.915649 
M275.697357,502.383789 
	C275.841675,501.905884 275.939575,501.407623 276.138519,500.953674 
	C276.915985,499.179535 277.333984,496.630768 280.014557,497.331207 
	C282.871521,498.077728 282.259308,500.582367 281.895020,502.740021 
	C281.485474,505.165710 280.568420,507.535583 281.010071,510.089630 
	C283.408905,511.462189 285.962189,510.696838 288.399231,510.917511 
	C291.602722,511.207550 292.718384,509.705933 292.882355,506.537384 
	C293.758362,489.607880 294.502045,472.663055 298.457916,456.055267 
	C299.523071,451.583588 297.615295,449.483368 292.933960,449.292023 
	C289.610596,449.156189 286.270111,449.422546 282.948273,449.269897 
	C279.458282,449.109528 277.940247,450.739807 277.164825,454.033844 
	C273.107361,471.270081 270.811951,488.690033 271.254608,506.421539 
	C271.288116,507.763214 270.663116,509.502167 272.880157,510.354797 
	C275.066711,508.454620 274.495697,505.484161 275.697357,502.383789 
M296.564758,558.874084 
	C294.295319,546.080200 292.905060,533.172791 292.945740,520.196411 
	C292.962830,514.733398 290.556763,514.006348 286.022430,513.947021 
	C281.360382,513.886047 279.120728,515.484314 279.375641,520.213135 
	C279.762512,527.389771 281.259918,534.341858 283.404755,541.188660 
	C284.071411,543.316956 286.532776,546.165527 282.785492,547.495422 
	C279.171967,548.777954 278.356262,545.324890 277.504059,542.956970 
	C274.845703,535.570862 273.275146,527.942688 273.363068,520.048340 
	C273.382568,518.298401 273.548370,516.578186 272.563263,514.755554 
	C270.503326,516.635071 271.209198,518.766418 271.360535,520.579834 
	C272.547821,534.806946 273.530579,549.050842 277.100403,562.979797 
	C280.554626,576.457642 280.385956,576.500488 294.148102,577.283386 
	C294.479980,577.302246 294.809601,577.358093 295.141296,577.382019 
	C298.344757,577.613647 299.788940,576.520508 299.007355,573.001343 
	C298.035583,568.625977 297.428619,564.169556 296.564758,558.874084 
M284.147095,587.502136 
	C289.022186,602.969788 295.879303,617.518982 304.365356,631.324585 
	C308.674042,638.334229 312.696320,639.759644 321.137329,636.836304 
	C320.482239,635.324158 319.866638,633.815552 319.182770,632.338562 
	C313.027069,619.044128 307.541626,605.496582 303.458527,591.402893 
	C300.216797,580.213318 300.174408,580.225586 288.208771,580.189270 
	C281.848206,580.169983 281.527679,580.657837 284.147095,587.502136 
M329.982910,651.428467 
	C329.204803,650.147217 328.413086,648.874023 327.650848,647.583374 
	C323.606262,640.734680 320.010406,639.465271 312.212616,642.185486 
	C312.350983,642.652649 312.385284,643.192017 312.644287,643.582214 
	C324.435059,661.345154 339.118347,676.497192 355.069702,690.498657 
	C356.844482,692.056580 358.771271,692.218872 361.549347,690.919189 
	C349.824280,678.544189 339.088196,666.083435 329.982910,651.428467 
M376.643860,703.857117 
	C371.686676,701.129089 369.118317,694.239807 360.837830,694.896667 
	C367.794769,701.369019 375.271545,704.860840 382.571655,708.657104 
	C380.780304,707.199158 378.988953,705.741211 376.643860,703.857117 
z"/>
<path fill="#000000" opacity="1.000000" stroke="none" 
	d="
M638.518555,718.578979 
	C594.212891,746.224548 546.100708,757.302917 494.642456,754.083740 
	C468.192627,752.429077 442.534119,746.735840 417.545776,736.406067 
	C419.415558,733.343506 421.780151,732.772827 423.821838,731.496155 
	C430.666382,727.216553 435.751312,732.024475 441.434204,733.967102 
	C446.947510,735.851807 452.451508,737.767700 458.001373,739.539001 
	C459.677521,740.073853 461.551758,740.566956 463.787994,738.101074 
	C452.817719,734.377258 444.755219,724.997131 431.992950,726.198303 
	C436.300323,719.962769 440.223206,718.823242 446.147430,720.402222 
	C450.588928,721.586060 455.285950,721.386719 459.699951,719.408508 
	C458.654358,715.620667 454.514709,713.980103 453.976166,709.768188 
	C457.858124,709.458557 458.868042,712.653625 460.264526,714.679077 
	C462.927429,718.541199 465.841339,720.092346 470.730774,719.156494 
	C475.406128,718.261719 480.305298,718.485962 485.638916,717.282410 
	C484.169373,709.024170 478.724609,702.050781 478.050140,693.501160 
	C481.083069,693.717651 481.019043,695.515686 481.546265,696.797363 
	C483.889313,702.493530 486.231079,708.190796 488.506805,713.914062 
	C489.644501,716.775269 491.582825,717.991699 494.701141,717.740540 
	C499.512238,717.352905 504.339691,717.146362 509.163818,716.952209 
	C511.556061,716.855835 512.905701,715.890503 512.946533,713.361755 
	C513.080994,705.038940 513.232422,696.716370 513.408752,688.394287 
	C513.504211,683.891846 511.779449,681.685547 506.869202,682.255859 
	C504.160248,682.570496 501.260742,682.987671 498.165436,681.659912 
	C502.773895,676.845032 511.041321,683.394043 514.307251,676.028137 
	C520.170593,680.561279 549.896301,680.979431 554.715637,676.259155 
	C555.679260,680.117310 558.629578,679.851868 561.594788,679.916809 
	C568.587708,680.069885 575.583435,680.293274 582.564697,680.711182 
	C586.344238,680.937317 589.511841,680.481445 591.179749,676.517090 
	C591.489563,675.780762 592.281494,675.277283 593.285278,675.428406 
	C595.017517,676.727722 592.554199,678.602234 594.780518,680.901550 
	C603.428406,680.901550 613.021240,680.961731 622.612183,680.853394 
	C624.659668,680.830261 625.558472,678.891174 626.631042,677.411682 
	C629.780762,673.067017 629.787537,673.071899 632.681152,671.772217 
	C632.813721,675.504089 629.059692,677.358459 628.677917,681.207581 
	C636.934387,682.107849 645.227234,682.189026 653.366577,681.194641 
	C656.814880,680.773315 658.760376,676.487793 661.475464,674.053467 
	C662.747314,672.913025 663.539246,671.103943 665.911194,670.747192 
	C665.869812,675.247803 661.790283,676.873840 660.330017,680.057373 
	C661.094910,681.888611 663.571655,680.805298 664.421692,682.612366 
	C664.210022,684.439941 662.537048,684.350220 661.437134,684.182251 
	C656.474670,683.424622 653.465637,686.222290 650.324768,689.435364 
	C639.207092,700.808655 626.601685,710.323181 613.040771,718.603394 
	C611.391296,719.610535 609.465332,720.326111 608.232117,722.296509 
	C611.604980,724.512939 614.694458,724.034302 618.077087,722.356689 
	C633.839539,714.539734 648.100891,704.487122 661.799500,693.547729 
	C663.391663,692.276306 665.055359,689.304749 667.546387,692.212219 
	C669.871765,694.926331 668.324707,696.957764 665.984070,698.883057 
	C657.355469,705.980713 648.486206,712.728821 638.518555,718.578979 
M542.528015,709.059937 
	C545.458801,702.157349 548.057434,695.144409 550.162476,687.933411 
	C551.371521,683.792175 549.789978,682.362183 545.883484,682.360046 
	C537.385864,682.355408 528.887512,682.353577 520.391052,682.234314 
	C517.470703,682.193359 516.139526,683.252991 516.169800,686.307007 
	C516.257263,695.136963 516.231384,703.969055 516.141846,712.799194 
	C516.111450,715.796021 517.405762,717.007324 520.349182,716.938721 
	C523.845276,716.856995 527.348267,716.917603 530.844666,717.028564 
	C538.873779,717.283630 538.872925,717.311279 542.528015,709.059937 
M544.453064,711.868835 
	C542.856812,717.232117 543.091858,717.581909 548.519226,717.798462 
	C551.506409,717.917664 554.541931,717.718933 557.469727,718.193848 
	C560.676758,718.714050 562.862061,717.662659 564.873718,715.303589 
	C571.672546,707.330688 578.210632,699.172119 583.544678,690.120789 
	C584.531616,688.445984 586.040405,686.955261 585.815308,684.720947 
	C584.023132,683.039185 581.771240,683.433289 579.670776,683.372620 
	C573.027588,683.180786 566.352478,683.406067 559.748291,682.815491 
	C555.868958,682.468628 554.300354,683.928284 553.349121,687.284912 
	C551.038269,695.439453 548.178162,703.406616 544.453064,711.868835 
M579.803162,701.258972 
	C575.762451,706.647034 571.721680,712.035034 567.680969,717.423096 
	C567.853821,717.860840 568.026672,718.298584 568.199585,718.736328 
	C574.781006,717.638672 581.403564,722.348877 588.041443,717.129028 
	C597.469604,709.715027 606.405640,701.800537 614.351440,692.823425 
	C616.448303,690.454407 618.977783,688.243164 620.402771,684.107971 
	C612.780823,684.107971 605.817505,684.548767 598.937866,683.979065 
	C592.560669,683.450867 588.629089,685.583252 586.086426,691.443115 
	C584.652222,694.748413 582.217834,697.619751 579.803162,701.258972 
M647.367615,689.012756 
	C648.125366,687.671631 650.068420,687.056946 649.861450,684.786133 
	C642.835876,684.163696 635.887634,684.312927 628.909058,684.725464 
	C625.593140,684.921509 623.441650,686.330017 621.423462,688.858887 
	C613.185547,699.181213 603.881104,708.458130 593.456238,716.598572 
	C592.262512,717.530640 590.546387,718.188660 590.374084,720.416199 
	C595.287415,720.580933 599.792114,723.267639 604.639648,720.422363 
	C619.776062,711.537842 634.033386,701.482422 647.367615,689.012756 
M469.381500,723.147034 
	C472.306519,727.729065 477.172668,730.163940 481.043243,733.699646 
	C485.770203,738.017578 490.846649,737.063171 496.179504,735.153564 
	C490.609467,721.222168 488.453796,719.927612 474.560303,721.910217 
	C472.928406,722.143066 471.299652,722.398132 469.381500,723.147034 
M506.609772,735.744629 
	C511.608002,736.443787 513.685242,734.328857 513.037659,729.299622 
	C512.785706,727.342346 512.997131,725.329102 512.922607,723.344116 
	C512.869812,721.935547 512.415283,720.464111 510.813202,720.432068 
	C504.812958,720.312073 498.808899,720.384033 492.229675,720.384033 
	C493.026520,722.470093 493.259186,723.448547 493.744171,724.279846 
	C495.245483,726.853271 496.908356,729.333191 498.385498,731.919678 
	C500.039368,734.815735 502.358765,736.260559 506.609772,735.744629 
M516.094604,731.858826 
	C517.029724,735.788269 525.827087,737.566101 529.021545,734.199524 
	C532.451782,730.584534 534.329651,725.979187 536.480103,721.327332 
	C533.041382,719.653076 530.000732,720.275818 527.093140,720.281555 
	C514.648621,720.306335 516.319092,718.462219 516.094604,731.858826 
M477.786835,737.173035 
	C480.529388,736.503113 478.875916,735.623596 477.892548,734.798462 
	C474.474121,731.930054 470.951569,729.177002 467.649994,726.180176 
	C463.093597,722.044434 455.203705,721.982300 450.112427,726.256531 
	C451.078674,729.683350 454.878021,727.787170 456.633759,729.713440 
	C462.172913,735.790527 468.482727,739.795288 477.786835,737.173035 
M539.196655,735.803955 
	C547.377563,734.081055 551.476318,727.202087 557.173767,722.153442 
	C552.227356,721.185059 547.622498,720.849121 543.014832,720.557983 
	C541.779480,720.479919 540.640930,720.919128 539.984314,721.981689 
	C537.484680,726.027100 534.871460,730.026550 533.319946,734.340698 
	C535.029053,736.246399 536.803223,735.621399 539.196655,735.803955 
M550.385864,736.733337 
	C561.299683,736.572205 568.356995,728.818604 576.843567,723.524597 
	C571.851562,722.663025 566.834106,719.819519 562.351868,722.637573 
	C557.615051,725.615662 553.635742,729.808838 549.374939,733.527710 
	C548.138489,734.607056 547.059326,735.882080 550.385864,736.733337 
M566.734802,737.862244 
	C576.390198,734.448914 585.550964,729.973450 595.974670,724.665649 
	C590.986511,724.182068 587.255981,722.167542 583.983337,723.870667 
	C576.412231,727.810425 569.192017,732.424500 561.674194,736.856689 
	C563.176147,738.782837 564.593628,738.531494 566.734802,737.862244 
M601.432678,725.420166 
	C593.432190,729.214417 585.431641,733.008667 577.431152,736.802917 
	C587.660156,736.349976 596.474365,732.160645 605.485046,728.188477 
	C604.724060,725.971497 603.399170,725.751892 601.432678,725.420166 
M518.619995,745.929504 
	C521.363281,744.170349 523.744202,742.109436 525.177185,738.459106 
	C521.807251,738.668823 518.407593,736.807007 516.651978,740.114868 
	C515.752991,741.808716 514.497070,744.853271 518.619995,745.929504 
M509.877136,745.423340 
	C510.894348,745.810181 512.214417,746.839539 512.630554,744.985962 
	C513.054871,743.095947 513.654846,740.686462 512.025940,739.350342 
	C509.930298,737.631714 507.464996,738.917908 504.679260,739.644775 
	C505.850891,742.141541 507.571686,743.606018 509.877136,745.423340 
M503.244781,742.759888 
	C500.902527,738.784668 497.868927,737.169678 493.254822,739.987061 
	C496.626801,742.989807 500.475464,744.310730 505.332245,745.465820 
	C504.415802,744.248352 504.028351,743.733643 503.244781,742.759888 
M482.704651,742.331970 
	C485.327454,743.225159 487.966095,744.028015 490.941956,743.904907 
	C486.372162,739.152466 485.167877,738.830078 480.321442,741.122864 
	C481.007660,741.495239 481.558075,741.793945 482.704651,742.331970 
M526.307556,744.657471 
	C528.954712,743.242981 531.974121,742.376343 534.182434,739.784668 
	C529.741333,738.277588 525.907654,740.794800 526.307556,744.657471 
z"/>
<path fill="#000000" opacity="1.000000" stroke="none" 
	d="
M435.807251,554.328491 
	C425.534302,554.008850 415.697632,555.112854 405.937012,553.223083 
	C402.455872,552.549133 399.000732,553.796570 395.599182,554.559814 
	C393.270630,555.082214 391.033264,555.176147 388.702362,554.533447 
	C386.374329,553.891663 384.718353,552.817566 384.780243,550.150269 
	C384.838104,547.653564 386.004364,546.056763 388.589020,545.719788 
	C392.280548,545.238403 393.567871,542.746643 393.743561,539.436462 
	C394.087646,532.954956 394.511200,526.471497 394.598267,519.984802 
	C394.647278,516.332397 394.253754,512.634399 391.382019,509.791229 
	C389.700500,508.126404 389.601593,505.928192 390.908661,504.300507 
	C394.933685,499.288269 394.556915,493.433716 394.625854,487.625549 
	C394.669312,483.961456 394.809998,480.288788 394.624420,476.634308 
	C394.400787,472.230560 393.029510,468.473450 388.171600,467.032288 
	C385.879059,466.352142 384.475403,464.769562 384.788055,462.180878 
	C385.126099,459.381622 387.063293,458.128235 389.583191,457.977539 
	C391.887817,457.839630 394.356049,457.735260 396.516174,458.392181 
	C402.881470,460.327911 409.165802,460.694366 415.493286,458.518494 
	C421.747894,456.367615 425.342346,461.243225 429.239655,464.237274 
	C432.353119,466.629089 430.761108,472.050293 426.911591,472.981415 
	C422.330780,474.089386 421.198151,477.031372 421.189850,481.041870 
	C421.178864,486.372467 421.311737,491.705353 421.194794,497.033112 
	C421.083069,502.123566 420.837585,507.175293 416.906219,511.222595 
	C415.097595,513.084595 414.928375,515.795837 414.796539,518.282532 
	C414.378662,526.164368 413.189880,534.118469 416.668610,541.752380 
	C416.668610,534.469177 416.771698,527.183899 416.630066,519.903442 
	C416.544434,515.501770 418.483032,512.307129 421.636780,509.515564 
	C422.926025,508.374390 423.928497,508.399109 425.092133,509.468079 
	C426.179138,510.466614 426.984741,511.887390 425.707458,512.912048 
	C419.399994,517.972046 421.333069,524.974670 421.119202,531.456848 
	C420.983429,535.572998 421.470154,539.723389 419.998932,543.667480 
	C427.674286,546.348389 434.453888,543.479492 437.835938,536.127197 
	C438.868713,533.881958 439.329468,531.379028 440.137909,529.023560 
	C440.928741,526.719421 442.018311,524.550476 444.993652,524.965332 
	C447.810394,525.358093 448.876556,527.592590 448.946442,530.014771 
	C449.041809,533.321533 448.635406,536.642395 448.455475,539.957764 
	C448.410370,540.789001 448.401611,541.622559 448.387848,542.455200 
	C448.188843,554.480225 448.189331,554.480225 435.807251,554.328491 
M417.312988,473.410461 
	C417.684052,468.653015 423.467407,469.890442 425.631287,466.148773 
	C420.810547,467.061920 416.177856,468.210327 415.675079,472.905640 
	C414.920135,479.955933 415.478607,487.146881 415.478607,494.278015 
	C417.557831,487.655121 416.121307,480.885254 417.312988,473.410461 
z"/>
<path fill="#000000" opacity="1.000000" stroke="none" 
	d="
M516.036804,551.973083 
	C514.786255,552.393677 513.514404,553.231506 512.288513,553.168823 
	C502.499054,552.668640 493.700500,555.472046 485.062439,559.950256 
	C479.921326,562.615479 473.172729,563.361145 468.997650,559.078064 
	C463.087555,553.015137 455.609406,547.376831 456.509857,536.936157 
	C457.136963,529.664856 456.221680,522.267090 456.728851,514.976807 
	C457.147888,508.954193 455.430145,504.188934 451.424133,499.855164 
	C448.690430,496.897827 449.781494,493.471222 453.666718,492.806213 
	C459.235840,491.852936 464.866455,491.346191 470.427582,490.200500 
	C474.702209,489.319855 475.268219,492.595673 475.264893,495.879456 
	C475.253662,507.039398 475.208466,518.199463 475.250214,529.359192 
	C475.257538,531.317505 474.917969,533.349915 476.395844,536.549744 
	C478.553650,522.161865 475.478241,508.697632 477.737335,495.322266 
	C481.329742,496.453247 481.174622,498.786804 481.224274,500.895477 
	C481.545410,514.524963 480.772980,528.171814 481.907715,541.798889 
	C486.900757,543.133606 489.684265,541.390137 489.757935,536.417480 
	C489.901062,526.759277 489.788635,517.097229 489.782593,507.436737 
	C489.780792,504.562714 488.920807,502.243958 486.028473,500.998199 
	C484.038116,500.140961 482.715637,498.621338 483.130920,496.301025 
	C483.593353,493.717285 485.640137,493.019684 487.920959,492.708527 
	C492.695679,492.057098 497.487549,491.498169 502.232788,490.673462 
	C506.600861,489.914337 508.376160,491.546906 508.343048,495.960602 
	C508.246796,508.785828 508.307800,521.612671 508.382965,534.438354 
	C508.393158,536.178223 507.790375,538.092529 510.013916,539.677124 
	C511.252594,524.744995 510.383636,509.711578 510.524750,494.381561 
	C514.246643,495.609009 514.182312,497.910339 514.211914,500.037659 
	C514.413513,514.511414 514.505310,528.987000 514.779480,543.459229 
	C514.828857,546.065857 515.558472,548.659668 515.989014,551.633362 
	C516.003967,552.007324 516.036804,551.973083 516.036804,551.973083 
M486.651367,553.055237 
	C486.999725,552.662720 488.101105,552.596680 487.251038,551.695435 
	C487.177246,551.617249 486.922394,551.655334 486.776245,551.707825 
	C481.264130,553.686646 475.884338,556.190002 469.771729,555.808105 
	C475.714478,557.955688 481.084198,556.622375 486.651367,553.055237 
z"/>
<path fill="#000000" opacity="1.000000" stroke="none" 
	d="
M583.016479,575.015076 
	C578.523254,572.748535 574.771729,569.947449 574.712463,564.227539 
	C574.661865,559.347717 577.422668,555.671631 582.005859,554.947144 
	C586.754150,554.196594 589.727905,556.101379 590.576172,560.994385 
	C590.649719,561.418274 591.115662,561.774109 591.796509,562.704102 
	C595.054321,559.588013 597.380798,556.253235 595.824463,551.869629 
	C590.318420,536.361206 584.678467,520.893250 578.082947,505.805115 
	C576.754761,502.766663 574.855530,499.999695 571.615967,498.468201 
	C569.569641,497.500793 568.747925,495.716644 569.238831,493.497131 
	C569.793762,490.987762 571.783020,490.641785 573.894165,490.768860 
	C581.197083,491.208435 588.493591,491.341370 595.798157,490.762054 
	C597.848206,490.599457 599.898621,490.885620 600.855286,493.096344 
	C601.779419,495.232178 600.960083,496.939880 599.273743,498.387207 
	C597.674011,499.760193 596.542603,501.320007 598.064941,503.798767 
	C600.415527,501.002747 602.983093,498.591583 603.926697,494.824310 
	C608.108093,496.708099 609.261230,499.781433 606.386108,501.996002 
	C602.048706,505.336975 603.634094,508.512451 605.112427,512.057495 
	C606.119263,514.471619 606.599243,517.172974 609.338562,519.768066 
	C612.238464,514.232178 614.403931,508.805389 615.308533,502.987457 
	C615.680359,500.596130 613.487671,499.242462 611.426147,498.326904 
	C609.538269,497.488464 608.402893,496.216614 608.968140,494.044861 
	C609.476929,492.089966 610.747498,490.767059 612.834656,490.741089 
	C618.153442,490.674927 623.474609,490.694397 628.793335,490.775909 
	C630.633362,490.804077 631.934692,491.786804 632.365173,493.672028 
	C632.814087,495.637543 632.472778,497.326355 630.533020,498.356323 
	C628.868225,499.240265 627.391846,500.269653 627.042603,502.658203 
	C627.000366,502.991516 627.026367,502.954742 626.750122,503.163391 
	C624.529663,504.887665 623.782898,507.065491 623.018799,509.299561 
	C617.426025,525.652588 611.917908,542.036682 606.101501,558.310364 
	C601.413696,571.426453 594.504517,576.201477 582.975525,574.988342 
	C582.989319,574.996765 583.016479,575.015076 583.016479,575.015076 
z"/>
<path fill="#000000" opacity="1.000000" stroke="none" 
	d="
M536.017151,554.028015 
	C523.220825,548.447754 520.053345,536.528320 517.222717,524.683472 
	C516.179382,520.317627 518.862000,515.968201 520.034546,511.699768 
	C524.818237,494.285980 542.594604,485.166962 558.336914,491.772217 
	C565.517151,494.784973 569.815063,501.875031 568.438599,508.847046 
	C567.635254,512.916016 566.081909,516.726196 561.158203,517.144958 
	C556.421082,517.547729 552.624817,515.865479 550.756836,511.156281 
	C550.106995,509.517944 549.705322,507.781128 549.172607,506.030945 
	C545.926208,508.536713 539.108215,527.600342 540.344360,530.715759 
	C542.197815,528.411072 542.019226,524.769226 545.333496,523.502808 
	C547.200500,524.251892 549.012756,525.839966 547.381348,527.475830 
	C544.775818,530.088440 545.941284,533.862061 543.604431,536.493774 
	C542.037048,538.258972 544.183350,539.419983 545.485168,540.291382 
	C549.958923,543.285828 555.144897,542.591125 560.661133,538.317749 
	C562.552429,536.852539 564.220215,534.093262 566.933899,536.703918 
	C569.326782,539.005859 568.273071,541.652954 566.774902,543.993958 
	C561.978638,551.488281 554.809387,554.742432 546.178223,555.233032 
	C542.991089,555.414246 539.876709,554.801392 536.381348,554.066772 
	C535.984314,554.000061 536.017151,554.028015 536.017151,554.028015 
M549.562073,500.798523 
	C550.338440,500.837860 551.114868,500.877197 552.297119,500.937073 
	C548.217529,497.677856 546.541626,497.808289 542.790833,501.332489 
	C537.881836,505.944855 536.837280,511.964874 540.806213,517.343201 
	C539.951050,513.985168 540.438049,511.563568 540.946045,509.160614 
	C541.873169,504.774902 542.984680,500.496460 549.562073,500.798523 
z"/>
<path fill="#000000" opacity="1.000000" stroke="none" 
	d="
M313.138245,354.717041 
	C325.826721,363.387970 333.994354,374.270691 333.258636,390.104156 
	C332.801727,399.937073 328.361084,407.935852 321.405334,414.631226 
	C315.874298,419.955109 315.873474,420.500885 319.013580,427.458771 
	C321.018524,431.901306 325.115570,434.875488 327.003510,439.297577 
	C325.451385,441.509277 323.364349,441.173401 321.457397,440.871979 
	C312.818115,439.506592 304.596497,436.925537 297.477600,431.653076 
	C295.187286,429.956787 293.060760,429.502197 290.136597,429.856293 
	C268.636658,432.459625 249.525986,427.575775 235.831406,409.719482 
	C223.089691,393.105591 226.340088,371.584869 243.777634,358.613098 
	C263.769470,343.741211 285.641235,342.227905 308.353058,352.311920 
	C309.871368,352.986053 311.329865,353.795013 313.138245,354.717041 
M254.205490,417.316742 
	C263.694214,423.405396 274.260010,425.383881 285.251190,424.585999 
	C291.263550,424.149536 296.648560,423.743805 302.299652,427.192780 
	C307.361176,430.281891 311.032867,427.002472 310.181030,421.110962 
	C309.916626,419.282379 309.130219,416.917053 310.754913,415.930756 
	C316.178741,412.638062 317.735840,406.824097 320.506561,401.857971 
	C327.548401,389.236359 329.621033,383.572571 322.338104,371.861023 
	C308.186737,349.104401 268.713745,345.759796 248.751648,362.046021 
	C238.387177,370.502045 232.464142,380.726990 235.093094,394.669220 
	C237.150909,405.582550 244.966812,411.552185 254.205490,417.316742 
z"/>
<path fill="#000000" opacity="1.000000" stroke="none" 
	d="
M232.929169,443.900299 
	C238.245865,445.357025 236.258392,448.020111 234.471161,450.660217 
	C225.906357,463.312195 219.225037,476.870422 216.016525,491.858276 
	C208.532547,526.818115 213.943573,559.285217 235.467865,588.455505 
	C236.060501,589.258606 236.684113,590.045166 237.205078,590.893555 
	C238.351212,592.760193 238.802917,594.726562 236.771957,596.221863 
	C234.697800,597.748962 232.918655,596.616516 231.582321,594.955322 
	C227.505539,589.887268 223.844543,584.503662 220.792267,578.773376 
	C207.539459,553.893005 202.936020,527.582458 207.317978,499.600006 
	C210.261551,480.802765 217.303467,463.817017 227.890320,448.164856 
	C229.101288,446.374481 230.257187,444.504517 232.929169,443.900299 
z"/>
<path fill="#000000" opacity="1.000000" stroke="none" 
	d="
M796.644165,494.306274 
	C793.394226,484.180695 788.585266,475.270630 783.015808,466.731964 
	C781.767639,464.818329 779.788025,462.567505 782.419189,460.625916 
	C785.269714,458.522339 787.005310,461.116211 788.449280,463.117249 
	C798.978760,477.709106 805.339600,494.104279 808.121277,511.740295 
	C812.372803,538.694824 809.306458,564.795654 797.342346,589.588196 
	C794.145813,596.212219 790.142761,602.344543 785.883850,608.307068 
	C784.300659,610.523682 782.517090,613.790710 779.202820,611.294006 
	C776.217529,609.045105 778.513245,606.429626 780.057922,604.339966 
	C790.728699,589.904053 797.688538,573.882568 800.935059,556.228210 
	C804.773804,535.353882 803.374695,514.844727 796.644165,494.306274 
z"/>
<path fill="#000000" opacity="1.000000" stroke="none" 
	d="
M239.997574,488.951721 
	C229.953262,516.031677 231.910568,541.502747 247.977768,565.446899 
	C249.501144,567.717102 250.583649,570.184937 248.109344,572.046265 
	C245.471497,574.030579 243.952774,571.477051 242.559616,569.618652 
	C222.252945,542.529724 221.414810,500.459229 240.612930,472.380249 
	C240.894791,471.967987 241.153503,471.531769 241.486053,471.163696 
	C243.197342,469.269623 244.691513,466.072968 247.827545,468.330963 
	C250.573090,470.307831 248.738434,472.874298 247.409561,474.964111 
	C244.635406,479.326782 241.955139,483.726501 239.997574,488.951721 
z"/>
<path fill="#000000" opacity="1.000000" stroke="none" 
	d="
M780.677002,548.678833 
	C784.020447,528.324280 780.811523,509.587372 770.544617,492.103577 
	C769.156006,489.738800 765.746155,486.814087 769.637085,484.487579 
	C773.265137,482.318207 774.814636,486.307037 776.194702,488.739136 
	C794.682434,521.320923 793.445435,553.340942 773.217468,584.740906 
	C771.818665,586.912292 770.064941,589.251526 767.230286,587.414062 
	C764.027893,585.338135 765.866089,582.774902 767.465393,580.572327 
	C774.331909,571.115784 778.631531,560.597717 780.677002,548.678833 
z"/>
<path fill="#000000" opacity="1.000000" stroke="none" 
	d="
M626.987183,503.009888 
	C630.020386,500.929749 633.839600,499.698792 634.857178,495.480194 
	C639.020081,498.222748 639.612305,501.370300 635.917603,503.660858 
	C631.473816,506.415924 629.905518,510.610291 628.380249,514.965759 
	C623.272888,529.549927 618.291504,544.178223 613.273926,558.793762 
	C610.878418,565.771301 607.980225,572.450134 602.278381,577.474548 
	C597.242554,581.912170 589.452637,582.742249 584.249268,579.248779 
	C582.987549,578.401672 580.453308,577.714539 582.754028,575.132080 
	C583.016479,575.015076 582.989319,574.996765 583.262695,575.235718 
	C588.247620,577.682129 592.659607,577.401855 597.168579,574.567688 
	C602.156860,571.432129 604.652832,566.649231 606.536316,561.495972 
	C611.941101,546.708252 617.181458,531.859924 622.397705,517.004272 
	C624.030518,512.354004 627.172791,508.191467 627.026367,502.954742 
	C627.026367,502.954742 627.000366,502.991516 626.987183,503.009888 
z"/>
<path fill="#000000" opacity="1.000000" stroke="none" 
	d="
M633.133789,395.482605 
	C630.651367,405.069580 626.292725,409.334961 619.523499,409.176392 
	C618.362000,407.729889 618.803162,406.015106 618.801208,404.390350 
	C618.787659,393.243530 618.843445,382.096436 618.781433,370.949982 
	C618.759399,366.994751 620.321777,366.281097 623.701050,367.975311 
	C629.745850,371.006012 633.135864,375.719208 633.236206,382.563293 
	C633.297180,386.720856 633.201050,390.880768 633.133789,395.482605 
z"/>
<path fill="#000000" opacity="1.000000" stroke="none" 
	d="
M449.603271,368.310791 
	C450.015442,381.373657 450.172913,394.134125 450.317200,406.894714 
	C450.356201,410.345245 448.534271,410.835480 445.781464,409.629700 
	C439.744934,406.985626 436.430298,402.191254 435.896088,395.789185 
	C435.497772,391.015503 435.570068,386.149445 435.987915,381.373077 
	C436.627289,374.063904 443.087708,367.856628 449.603271,368.310791 
z"/>
<path fill="#000000" opacity="1.000000" stroke="none" 
	d="
M405.244934,560.160278 
	C401.472687,560.533752 398.180786,561.056946 394.873596,561.184326 
	C391.862518,561.300293 389.519287,560.071045 388.208954,555.802002 
	C394.783630,557.286072 400.575439,554.883301 406.284698,555.376831 
	C419.082703,556.483032 431.873657,555.511658 444.649506,556.151367 
	C447.897308,556.314026 449.310455,554.317688 450.046753,551.394897 
	C451.290558,546.457458 450.606781,541.465088 450.774689,536.496338 
	C450.838348,534.612427 450.046417,532.524109 451.719269,530.889587 
	C454.188141,530.813049 454.648560,532.728455 454.541199,534.243958 
	C454.058685,541.052612 455.895233,547.822327 454.760315,554.624512 
	C453.880707,559.896362 452.344482,560.809814 447.078674,560.680786 
	C433.295837,560.343201 419.505768,560.298828 405.244934,560.160278 
z"/>
<path fill="#000000" opacity="1.000000" stroke="none" 
	d="
M732.095215,301.048218 
	C732.671326,304.272736 735.742126,308.224792 731.518738,309.587524 
	C727.293518,310.950836 727.754333,305.966980 726.867432,303.507416 
	C721.432617,288.436127 711.664734,277.179230 697.584167,269.652130 
	C695.598816,268.590820 693.129761,267.677551 694.380371,265.043152 
	C695.646057,262.376953 698.018860,263.645447 699.988708,264.654694 
	C715.325623,272.513062 725.846252,284.648010 732.095215,301.048218 
z"/>
<path fill="#000000" opacity="1.000000" stroke="none" 
	d="
M288.626953,678.401978 
	C280.701782,672.204529 275.131927,664.627930 271.205902,655.813171 
	C270.261139,653.691956 269.416168,651.499573 268.807709,649.263123 
	C268.251953,647.220276 267.421448,644.549316 270.207001,643.682129 
	C273.221802,642.743469 273.571167,645.645386 274.189789,647.617065 
	C278.185272,660.351685 285.774872,670.324707 297.019379,677.502441 
	C298.558624,678.484985 300.249237,679.230408 301.788513,680.212891 
	C303.392426,681.236633 304.007935,682.788269 303.090912,684.519409 
	C302.084045,686.420166 300.383240,686.193115 298.760162,685.391602 
	C295.154968,683.611328 292.032898,681.109192 288.626953,678.401978 
z"/>
<path fill="#000000" opacity="1.000000" stroke="none" 
	d="
M398.634521,770.495117 
	C391.266632,767.489441 384.790253,763.805542 379.713470,758.054626 
	C378.406982,756.574646 376.754089,754.782349 378.885284,752.897034 
	C381.062286,750.971130 382.440735,752.989014 383.828766,754.418762 
	C394.394379,765.301453 407.425781,769.482544 422.329071,768.561340 
	C424.384979,768.434204 427.301941,767.244446 427.716431,770.264709 
	C428.189178,773.709229 424.920746,773.942688 422.487366,774.104004 
	C414.426819,774.638245 406.533661,773.784912 398.634521,770.495117 
z"/>
<path fill="#000000" opacity="1.000000" stroke="none" 
	d="
M535.965332,553.989685 
	C546.753906,560.312561 562.903564,555.881226 568.869812,545.033264 
	C569.781799,543.375061 570.225281,540.183777 573.302063,541.980835 
	C575.592773,543.318726 575.153931,545.523315 574.004578,547.670776 
	C566.647461,561.417480 545.167664,565.812561 533.206726,555.969666 
	C532.593323,555.464844 531.877319,554.932373 532.101746,553.880371 
	C533.198425,553.040466 534.294983,553.969604 535.706238,553.987915 
	C536.017151,554.028015 535.984314,554.000061 535.965332,553.989685 
z"/>
<path fill="#000000" opacity="1.000000" stroke="none" 
	d="
M438.224609,598.192505 
	C441.313477,594.731873 444.838318,594.417786 448.221741,596.644043 
	C450.335297,598.034851 449.184875,608.044861 446.862274,609.742371 
	C444.182037,611.701233 441.435059,611.957825 439.222870,609.028809 
	C439.472046,606.629578 441.532227,608.169678 442.368561,607.240784 
	C440.808472,606.039795 439.261597,604.848938 437.716553,603.651611 
	C436.560425,604.196045 436.872528,606.268738 435.043945,606.210754 
	C432.334869,604.351318 435.138062,600.589966 432.388672,598.546753 
	C428.329926,599.638000 431.312164,604.434387 427.905640,606.700012 
	C426.160400,603.050537 425.511963,598.940918 427.884979,596.630066 
	C430.163849,594.410889 434.398193,593.910461 436.760742,598.135498 
	C436.896423,598.378174 437.580872,598.314026 438.224609,598.192505 
M442.888672,603.365967 
	C445.586731,603.682007 445.872620,601.983887 445.478882,600.027100 
	C445.226318,598.772034 444.109802,597.987549 442.917877,598.646362 
	C440.970703,599.722656 440.812073,601.329041 442.888672,603.365967 
z"/>
<path fill="#000000" opacity="1.000000" stroke="none" 
	d="
M708.963623,301.918030 
	C706.481262,294.609955 701.516907,289.864288 695.574402,285.950684 
	C694.468994,285.222656 693.259216,284.612762 692.281433,283.742035 
	C691.181458,282.762482 690.957825,281.421082 691.828979,280.144836 
	C692.595276,279.022034 693.728638,279.082031 694.955383,279.355652 
	C702.064392,280.941498 714.625793,295.199188 715.339844,302.530029 
	C715.517334,304.352386 715.239929,306.000366 713.123535,306.334351 
	C710.048523,306.819580 709.854309,304.205261 708.963623,301.918030 
z"/>
<path fill="#000000" opacity="1.000000" stroke="none" 
	d="
M513.858887,481.225372 
	C511.654999,473.521790 506.849091,468.874908 499.666748,466.577606 
	C499.032623,466.374756 498.371521,466.240265 497.760437,465.984467 
	C496.048370,465.267761 494.059235,464.540161 494.738739,462.155823 
	C495.423828,459.751923 497.500214,460.065125 499.298950,460.585144 
	C506.675323,462.717682 512.328064,467.181152 516.147827,473.793976 
	C517.978455,476.963104 519.248596,480.425354 519.432434,484.182922 
	C519.523254,486.039642 519.868713,488.255768 517.514832,488.695343 
	C514.835632,489.195679 514.943970,486.811035 514.649414,485.034790 
	C514.459106,483.887329 514.192200,482.752625 513.858887,481.225372 
z"/>
<path fill="#000000" opacity="1.000000" stroke="none" 
	d="
M618.443054,267.471771 
	C622.528809,270.427277 626.197815,273.302094 628.883606,277.211304 
	C630.083862,278.958252 631.027466,280.945038 628.838806,282.468597 
	C626.715393,283.946716 625.565674,282.037842 624.446899,280.584442 
	C619.316284,273.919189 612.872314,269.183960 604.671997,266.946411 
	C602.703674,266.409363 600.478088,265.504974 601.231628,262.951782 
	C601.932251,260.577881 604.198364,261.360962 605.944214,261.712799 
	C610.429688,262.616730 614.317139,264.884155 618.443054,267.471771 
z"/>
<path fill="#000000" opacity="1.000000" stroke="none" 
	d="
M533.495178,606.281494 
	C529.991089,605.724121 530.361755,609.561096 527.269714,610.883362 
	C526.234558,605.715881 526.857910,600.952393 526.829041,596.680908 
	C531.579285,592.046204 536.153687,598.499146 540.619629,595.963440 
	C542.199036,598.066406 541.127686,600.973572 543.012085,603.182861 
	C547.731323,602.691895 544.250183,597.070129 547.937439,595.451782 
	C549.758789,599.097229 550.763733,603.773438 548.013428,605.888855 
	C545.409424,607.891724 540.623047,607.120483 538.342346,602.891113 
	C536.683716,604.107666 535.250000,605.159302 533.495178,606.281494 
M533.730957,601.887146 
	C533.939758,600.413208 534.285400,598.651978 532.110413,598.629517 
	C530.411255,598.612061 530.148865,600.204163 530.404236,601.532532 
	C530.781982,603.497314 531.862976,603.972717 533.730957,601.887146 
z"/>
<path fill="#000000" opacity="1.000000" stroke="none" 
	d="
M489.427551,591.613159 
	C492.178284,591.388550 494.345612,591.614807 495.305176,594.494873 
	C488.529205,594.573303 486.664825,595.893372 487.268707,599.998535 
	C487.641022,602.529541 488.971252,604.069519 491.655243,603.425781 
	C494.388000,602.770386 498.891235,602.715515 498.311737,599.236755 
	C497.794403,596.131165 498.256744,595.201111 500.768616,594.922180 
	C503.568542,594.611206 505.713593,595.938721 506.149078,598.880676 
	C506.482971,601.136353 506.743286,603.477844 505.938263,606.101196 
	C503.010437,606.196472 500.032715,607.879211 497.115540,605.639709 
	C496.051178,604.822632 495.307434,605.726379 494.404633,606.019104 
	C489.362579,607.653259 485.673828,606.195862 484.188080,602.055603 
	C482.631042,597.716797 484.422089,593.903381 489.427551,591.613159 
z"/>
<path fill="#000000" opacity="1.000000" stroke="none" 
	d="
M581.420593,603.794067 
	C583.090942,601.422852 580.185486,601.774780 579.590332,600.600769 
	C578.624207,598.694946 578.416199,597.084900 580.207092,595.762695 
	C581.837830,594.558716 583.873169,594.467468 585.296814,595.821960 
	C587.439331,597.860352 584.439331,597.790161 583.714600,598.768616 
	C585.394836,600.465881 588.151550,601.845520 586.426941,604.856506 
	C584.851013,607.607849 582.289001,606.873108 579.765198,606.393799 
	C577.535278,605.970154 575.478455,605.990906 573.526611,604.092957 
	C570.387512,601.040344 568.063965,605.228699 563.933472,606.605469 
	C565.704346,600.534485 567.506958,595.734802 570.384521,591.099854 
	C574.325012,592.710205 574.209167,596.278748 575.257629,599.039917 
	C576.340393,601.891296 577.552490,604.231934 581.420593,603.794067 
z"/>
<path fill="#000000" opacity="1.000000" stroke="none" 
	d="
M298.037720,658.960327 
	C299.888947,660.399902 301.500854,661.570618 303.068359,662.798096 
	C304.396515,663.837952 304.962433,665.187073 304.012848,666.721558 
	C303.062439,668.257385 301.520752,668.467285 300.090912,667.606201 
	C292.956879,663.309814 288.300201,657.012329 285.841125,649.133423 
	C285.303375,647.410339 285.451630,645.245056 287.736298,644.600464 
	C290.059448,643.944885 290.941956,645.577515 291.491516,647.529907 
	C292.681763,651.758423 294.787170,655.491089 298.037720,658.960327 
z"/>
<path fill="#000000" opacity="1.000000" stroke="none" 
	d="
M402.779175,759.529297 
	C399.096252,757.852417 395.771423,756.314148 393.017487,753.855896 
	C391.621521,752.609802 390.279510,751.063782 391.897797,749.179871 
	C393.322144,747.521606 394.910706,748.348816 396.260529,749.507080 
	C402.326874,754.712524 409.305176,757.186279 417.321686,756.732910 
	C419.029510,756.636353 420.902832,756.872803 420.989990,759.107239 
	C421.084229,761.522461 419.121796,762.155701 417.250397,762.155579 
	C412.422791,762.155334 407.691681,761.380615 402.779175,759.529297 
z"/>
<path fill="#000000" opacity="1.000000" stroke="none" 
	d="
M623.330872,260.559998 
	C629.257507,264.640747 634.571838,268.830383 637.890381,275.017029 
	C638.750671,276.620728 640.092041,278.466492 638.174316,279.906830 
	C635.916748,281.602356 634.990723,279.151428 634.029968,277.816315 
	C630.312012,272.649658 626.041565,268.138245 620.469604,264.894165 
	C618.503235,263.749298 614.902893,262.742188 616.653625,259.661835 
	C618.492676,256.426208 620.909668,259.608978 623.330872,260.559998 
z"/>
<path fill="#000000" opacity="1.000000" stroke="none" 
	d="
M515.990356,552.026733 
	C517.477112,550.604797 519.018677,549.110046 520.870667,551.531677 
	C522.418640,553.555725 522.258118,555.618286 520.352600,557.280090 
	C519.394287,558.115784 518.136047,558.916382 516.919861,559.094604 
	C511.197449,559.933167 505.453033,560.665894 499.693787,561.184570 
	C497.668701,561.367004 495.246155,561.529663 494.041626,557.734314 
	C499.402924,556.289917 504.714996,555.207581 510.215240,554.834656 
	C512.264893,554.695679 514.691528,555.375244 515.908447,552.329102 
	C516.036804,551.973083 516.003967,552.007324 515.990356,552.026733 
z"/>
<path fill="#000000" opacity="1.000000" stroke="none" 
	d="
M568.322266,521.623779 
	C563.322449,523.796204 559.113037,523.696655 554.646545,518.393860 
	C566.832031,518.906372 572.273438,513.721680 569.941589,501.750214 
	C576.365479,507.560394 575.439636,516.939026 568.322266,521.623779 
z"/>
<path fill="#000000" opacity="1.000000" stroke="none" 
	d="
M503.227234,471.704315 
	C507.686554,474.971649 510.746826,478.756470 511.231781,484.105133 
	C511.379028,485.729034 511.460938,487.681030 509.165558,487.963135 
	C507.150726,488.210724 506.843628,486.529022 506.485779,485.053162 
	C505.141785,479.510345 502.347931,475.420166 496.297546,474.178802 
	C494.438416,473.797424 492.863037,472.391022 493.704834,470.150543 
	C494.514832,467.994720 496.476044,467.860901 498.289886,468.660553 
	C499.935608,469.386108 501.398499,470.526398 503.227234,471.704315 
z"/>
<path fill="#000000" opacity="1.000000" stroke="none" 
	d="
M378.736450,603.634399 
	C373.800018,606.125977 375.067108,600.805908 372.901855,599.531799 
	C371.399780,601.032104 373.491577,603.802002 370.876953,605.272766 
	C368.951599,601.620361 369.569244,597.801453 370.225159,594.255371 
	C370.679352,591.800171 372.682220,592.403381 373.770538,594.171021 
	C374.877594,595.969055 375.646759,597.975098 376.633057,600.034546 
	C379.855713,598.062683 378.745270,593.027832 382.819824,592.108887 
	C385.575317,597.324280 385.659698,602.905396 383.057556,606.306763 
	C380.429382,604.666565 382.586609,601.624390 381.025848,599.451233 
	C380.281952,600.854004 379.615509,602.110718 378.736450,603.634399 
z"/>
<path fill="#000000" opacity="1.000000" stroke="none" 
	d="
M525.156982,603.409851 
	C525.018433,604.812256 524.822937,605.776550 523.492737,606.002625 
	C520.545410,604.385864 523.154419,600.496643 520.530029,598.548645 
	C516.433411,599.444641 519.707581,604.134827 516.797913,605.798035 
	C513.440369,604.472046 516.217590,600.402893 513.571960,598.584412 
	C509.443817,599.349548 512.701782,604.087402 509.344543,605.975891 
	C507.107239,603.347229 507.924744,600.255249 508.365601,597.408630 
	C508.801910,594.591614 511.588806,595.447327 513.263245,595.180725 
	C515.621399,594.805298 518.187683,594.952759 520.544983,595.105713 
	C525.260254,595.411621 525.093811,599.491516 525.156982,603.409851 
z"/>
<path fill="#000000" opacity="1.000000" stroke="none" 
	d="
M464.012329,600.513367 
	C464.980957,599.950623 465.666901,599.545654 466.336121,599.150635 
	C465.875580,597.733765 463.906982,598.642517 463.787140,596.873047 
	C463.928741,596.642822 464.076508,596.084106 464.429077,595.880981 
	C466.721497,594.560608 468.993286,594.754456 470.623444,596.828979 
	C472.615326,599.363708 472.693237,602.462646 471.456055,605.262390 
	C470.397858,607.657104 467.776276,607.189026 465.752441,606.890808 
	C462.159698,606.361389 461.483490,604.017273 464.012329,600.513367 
z"/>
<path fill="#000000" opacity="1.000000" stroke="none" 
	d="
M618.755249,604.532166 
	C618.566406,601.344604 620.912659,599.982361 623.195190,598.598511 
	C622.331238,597.761292 620.582642,598.512207 620.460693,596.312439 
	C622.291504,594.478394 624.637939,594.234070 626.812439,595.826416 
	C629.621460,597.883362 629.079224,601.109741 628.750061,604.038940 
	C628.431519,606.874329 625.870422,606.215454 624.085632,606.617249 
	C622.564941,606.959534 621.166504,606.342529 619.418335,605.272583 
	C618.995728,604.923340 618.755249,604.532166 618.755249,604.532166 
z"/>
<path fill="#000000" opacity="1.000000" stroke="none" 
	d="
M407.767761,601.047424 
	C407.967621,603.037109 408.701447,604.157288 410.712708,603.981323 
	C413.065369,601.657288 410.299469,598.160645 412.812073,595.224976 
	C415.511475,598.638611 413.961761,602.215149 414.230774,605.843933 
	C411.198608,606.227051 407.383301,609.140991 405.785278,605.490601 
	C404.238251,601.956726 401.432617,597.420227 405.408478,593.111328 
	C407.655792,593.516479 408.114288,595.841980 409.827942,596.664062 
	C409.079620,598.165527 408.439606,599.449707 407.767761,601.047424 
z"/>
<path fill="#000000" opacity="1.000000" stroke="none" 
	d="
M457.837585,606.642822 
	C455.292816,607.098206 452.962463,607.467407 451.709381,605.157288 
	C450.122131,602.231323 449.198547,599.089355 451.312653,595.744751 
	C454.189850,596.538574 453.496216,598.820923 453.694458,600.609619 
	C453.846161,601.978394 453.896362,603.478760 455.679993,603.460266 
	C457.366089,603.442810 457.583191,601.992188 457.812653,600.622925 
	C458.092194,598.954712 457.305328,596.870605 459.477905,595.835388 
	C462.361298,600.673096 461.829468,605.107117 457.837585,606.642822 
z"/>
<path fill="#000000" opacity="1.000000" stroke="none" 
	d="
M392.121735,607.034790 
	C386.476654,605.497314 385.225159,602.200806 387.592224,595.802856 
	C390.765106,597.449524 388.403473,601.721985 391.573639,603.569885 
	C395.505676,602.495728 392.282410,597.741211 394.907043,595.941650 
	C398.861603,600.741760 397.662628,606.064026 392.121735,607.034790 
z"/>
<path fill="#000000" opacity="1.000000" stroke="none" 
	d="
M639.144958,605.644897 
	C638.529602,605.089417 638.247253,604.684387 638.045410,604.242554 
	C637.187195,602.363831 638.989685,598.641479 635.560974,598.771912 
	C632.603088,598.884460 633.726746,602.471252 632.990112,604.499878 
	C632.883850,604.792419 632.622986,605.028870 632.014038,605.873108 
	C630.039368,602.573669 628.864197,599.012329 631.103088,596.384888 
	C632.487183,594.760620 636.380554,593.549500 638.747070,595.801025 
	C641.727051,598.636292 642.245789,602.222168 639.144958,605.644897 
z"/>
<path fill="#000000" opacity="1.000000" stroke="none" 
	d="
M550.955505,605.619873 
	C550.827759,602.738525 553.218750,604.495728 554.226501,603.431152 
	C554.094666,601.860718 552.334595,601.975830 551.532471,601.060181 
	C550.455261,599.830505 549.750305,598.557861 550.747986,597.039429 
	C551.965698,595.186096 553.765198,594.379028 555.928345,595.028320 
	C557.786011,595.585999 558.103760,596.792786 557.060791,598.492859 
	C556.816589,598.890930 557.031494,599.830322 557.363464,600.276367 
	C558.661194,602.019958 559.607056,603.845520 557.651489,605.563049 
	C555.689026,607.286560 553.377808,607.105530 550.955505,605.619873 
z"/>
<path fill="#000000" opacity="1.000000" stroke="none" 
	d="
M610.348389,601.899292 
	C609.385925,607.044861 607.604431,607.803711 602.925293,605.416809 
	C602.554810,603.008850 605.505859,604.496338 605.862854,602.937134 
	C601.556885,599.033264 601.257263,597.248657 604.615417,595.533203 
	C606.017883,594.816711 607.439636,594.559631 608.873718,595.475586 
	C610.502563,596.516052 609.600769,597.698425 609.156372,598.940552 
	C608.759705,600.049377 609.836975,600.719299 610.348389,601.899292 
z"/>
<path fill="#000000" opacity="1.000000" stroke="none" 
	d="
M494.182861,481.906128 
	C492.414948,480.840759 491.755157,479.647705 492.650513,478.021484 
	C493.396698,476.666168 494.710388,476.482208 496.077820,476.668060 
	C498.895294,477.050995 503.181244,481.926056 503.213257,484.737823 
	C503.226837,485.932220 503.080200,487.102417 501.812286,487.634766 
	C500.448883,488.207184 499.568970,487.343903 499.006409,486.310638 
	C497.956604,484.382294 496.826294,482.615570 494.182861,481.906128 
z"/>
<path fill="#000000" opacity="1.000000" stroke="none" 
	d="
M589.262939,596.204102 
	C591.381348,594.650024 593.183289,594.628540 594.798523,595.774170 
	C595.602234,597.755676 593.683105,597.791504 593.229309,598.863281 
	C594.267944,600.769043 597.836060,602.017334 595.488831,604.962341 
	C593.930725,606.917236 591.719482,607.641785 589.441895,605.900879 
	C588.782043,603.775635 591.484131,604.512695 591.618652,603.021606 
	C590.475525,600.998535 585.938110,600.218506 589.262939,596.204102 
z"/>
<path fill="#000000" opacity="1.000000" stroke="none" 
	d="
M619.120667,605.115967 
	C615.761108,608.067749 613.276733,606.656738 613.035339,602.870850 
	C612.815308,599.421631 609.214355,595.206482 614.292175,592.263855 
	C616.125549,592.797241 616.490051,594.648438 617.744568,595.830688 
	C616.655579,598.709534 612.856812,601.833984 618.482544,604.420105 
	C618.755249,604.532166 618.995728,604.923340 619.120667,605.115967 
z"/>
<path fill="#000000" opacity="1.000000" stroke="none" 
	d="
M642.948120,601.017273 
	C642.748413,597.828186 641.028198,594.680603 645.046570,592.605286 
	C646.562744,594.217957 648.857605,595.183167 646.726379,598.412659 
	C645.131897,600.828735 646.539429,603.431030 648.510132,605.472778 
	C644.398376,607.207947 643.966675,606.864014 642.948120,601.017273 
z"/>
<path fill="#000000" opacity="1.000000" stroke="none" 
	d="
M398.164856,597.384705 
	C398.668549,595.294128 398.044891,593.295898 400.099609,591.484192 
	C402.806183,596.196228 400.501740,601.262817 402.142151,605.826599 
	C398.212311,605.448547 398.094818,605.189514 398.164856,597.384705 
z"/>
<path fill="#000000" opacity="1.000000" stroke="none" 
	d="
M473.202148,600.036255 
	C474.029694,596.872009 472.968048,593.777344 474.993103,590.391296 
	C477.753632,595.742554 474.638519,601.410278 478.027374,605.862488 
	C473.740265,606.449158 473.698700,606.397949 473.202148,600.036255 
z"/>
<path fill="#000000" opacity="1.000000" stroke="none" 
	d="
M419.330872,603.385986 
	C419.239014,604.763245 419.300018,605.827454 417.175110,606.341125 
	C416.439850,601.298096 416.363556,596.465820 417.823944,591.621460 
	C420.539551,595.201904 418.709900,599.229797 419.330872,603.385986 
z"/>
<path fill="#000000" opacity="1.000000" stroke="none" 
	d="
M424.573883,604.965515 
	C422.972107,607.068726 422.044067,606.077271 421.920502,604.522095 
	C421.696106,601.696716 421.856842,598.840759 421.856842,594.791077 
	C425.982544,598.314026 424.767761,601.592529 424.573883,604.965515 
z"/>
<path fill="#000000" opacity="1.000000" stroke="none" 
	d="
M597.963745,604.422974 
	C598.081604,601.244446 596.930725,598.259277 599.128967,595.264404 
	C602.085388,598.554504 601.286133,601.869019 600.275574,605.034607 
	C599.888855,606.246155 598.737732,605.848206 597.963745,604.422974 
z"/>
<path fill="#000000" opacity="1.000000" stroke="none" 
	d="
M719.109924,678.156372 
	C714.023499,681.918457 715.410889,687.151611 715.818787,692.219055 
	C715.935303,693.666138 715.732483,695.512573 713.777649,695.670837 
	C711.548889,695.851257 711.128296,694.032593 711.056458,692.302063 
	C711.001831,690.986145 711.110474,689.640564 711.333496,688.340332 
	C712.003357,684.436218 712.159363,680.886108 706.788208,680.724915 
	C706.521545,677.069946 710.484497,675.644287 710.241577,672.185303 
	C709.587036,670.321350 705.499817,671.580750 706.081970,668.431946 
	C706.574463,665.768494 709.638062,667.327454 711.153503,665.816467 
	C712.198975,664.092590 709.448486,662.178711 711.120911,660.330933 
	C714.767883,660.668762 719.199646,666.597290 717.474121,669.644714 
	C715.639526,672.884827 717.129211,674.916748 718.771240,677.661011 
	C718.998535,678.013184 719.109924,678.156372 719.109924,678.156372 
z"/>
<path fill="#000000" opacity="1.000000" stroke="none" 
	d="
M725.438538,695.182007 
	C724.124390,694.177246 723.161926,693.289429 722.072144,692.284180 
	C720.714294,692.367126 719.698303,694.768311 717.819031,693.436523 
	C716.484253,692.490479 716.519165,690.997620 717.179504,689.846924 
	C718.512512,687.523804 718.713684,683.957825 722.271118,683.751038 
	C724.376709,683.628601 725.734558,683.184937 727.398743,681.641418 
	C729.633850,679.568359 731.958435,681.372681 732.814026,683.745117 
	C733.607483,685.945068 734.789734,687.488464 736.882446,688.725098 
	C738.415222,687.623291 735.984558,685.883179 737.692078,684.680298 
	C737.853882,684.654907 738.409485,684.380188 738.769165,684.541748 
	C741.279602,685.669006 741.885986,688.290344 743.114014,690.392944 
	C743.774414,691.523621 743.449890,693.058533 742.136230,693.270325 
	C736.717224,694.144104 731.582825,697.487732 725.438538,695.182007 
M728.242188,691.069275 
	C729.747253,691.838623 731.058350,691.752075 732.280945,689.930298 
	C731.080994,688.484558 729.848145,686.999207 728.362976,685.209961 
	C727.493652,687.387695 727.066406,688.938416 728.242188,691.069275 
z"/>
<path fill="#000000" opacity="1.000000" stroke="none" 
	d="
M718.941406,677.942627 
	C719.787354,674.653625 722.384827,674.833130 724.917786,674.841309 
	C726.874329,674.847595 728.646179,674.606689 728.622925,671.977539 
	C728.599915,669.372925 726.835632,669.143250 724.879944,669.117859 
	C724.215515,669.109253 723.546997,669.141174 722.887573,669.078369 
	C721.529663,668.949036 720.029724,668.746216 720.011963,667.003174 
	C719.992798,665.120239 721.627136,664.952637 722.896667,665.185669 
	C726.270386,665.804993 728.447021,665.496704 729.233032,661.294434 
	C729.643433,659.100708 732.252502,659.736450 732.722229,661.695190 
	C733.566956,665.218445 735.779602,665.609436 738.685425,665.320068 
	C739.934570,665.195618 741.150452,665.419800 741.278442,666.933289 
	C741.407532,668.458801 740.176514,668.804138 738.976562,668.987732 
	C737.992310,669.138245 736.992615,669.186890 736.007935,669.335083 
	C734.518799,669.559326 733.526245,670.339478 733.568176,671.952759 
	C733.609070,673.524719 734.864685,673.625427 736.029907,673.844360 
	C737.610229,674.141418 739.792175,674.063965 739.586975,676.381348 
	C739.380676,678.711121 737.143982,678.092773 735.604004,678.305786 
	C730.318481,679.037048 725.029785,678.621216 719.426270,678.225464 
	C719.109924,678.156372 718.998535,678.013184 718.941406,677.942627 
z"/>
<path fill="#000000" opacity="1.000000" stroke="none" 
	d="
M592.288391,380.026184 
	C592.295471,387.678558 592.364014,394.836548 592.289062,401.993011 
	C592.198792,410.609222 586.360596,417.149292 577.742371,417.220581 
	C548.615784,417.461456 519.485962,417.439697 490.358368,417.309479 
	C483.434814,417.278534 477.112946,410.936523 476.872284,403.646820 
	C476.515594,392.841614 476.494110,382.003265 476.917053,371.202026 
	C477.210571,363.706696 484.464783,357.157074 492.590485,357.098480 
	C520.718201,356.895447 548.849426,356.886505 576.976807,357.115753 
	C585.675598,357.186615 592.092163,364.352020 592.267822,373.039520 
	C592.311584,375.202637 592.282166,377.367218 592.288391,380.026184 
z"/>
<path fill="#000000" opacity="1.000000" stroke="none" 
	d="
M270.529144,408.367462 
	C266.681641,408.372162 263.184784,408.347046 259.688660,408.284607 
	C258.475708,408.262939 257.299103,408.028137 256.986847,406.597046 
	C256.719940,405.373962 256.901489,404.076935 258.158386,403.604797 
	C262.386047,402.016571 263.203186,398.112732 264.457031,394.547211 
	C266.389709,389.051483 268.163116,383.499969 270.027924,377.980133 
	C270.909851,375.369720 272.448029,373.010864 269.485626,370.347107 
	C267.853394,368.879364 268.990326,366.664490 271.312714,366.434723 
	C274.434113,366.125916 277.616974,366.160919 280.752838,366.365021 
	C283.201080,366.524384 283.663544,368.759125 284.321350,370.652557 
	C287.106140,378.668884 289.851135,386.699738 292.723450,394.684692 
	C293.940826,398.068909 294.593842,401.854279 298.425995,403.665314 
	C299.577881,404.209656 299.914001,405.421204 299.557617,406.682556 
	C299.165283,408.071106 298.001007,408.304382 296.795166,408.340179 
	C293.469788,408.438873 290.127045,408.735657 286.821411,408.510559 
	C283.058990,408.254364 282.347412,406.321381 284.592041,403.286316 
	C287.069794,399.936005 285.608978,395.755676 281.546265,395.208160 
	C278.936523,394.856445 276.181091,394.834045 273.591248,395.265656 
	C269.854767,395.888336 268.360565,400.359955 270.829010,403.182922 
	C272.427277,405.010681 273.783905,406.571075 270.529144,408.367462 
M275.346924,388.107025 
	C277.496918,389.023621 280.128662,389.300598 280.872009,386.933167 
	C281.872284,383.747314 280.463715,380.765808 277.445374,378.338806 
	C275.548157,381.425079 273.428070,383.978546 275.346924,388.107025 
z"/>
</svg>